<svg xmlns="http://www.w3.org/2000/svg" version="1.1" xmlns:xlink="http://www.w3.org/1999/xlink" xmlns:svgjs="http://svgjs.dev/svgjs" viewBox="0 0 800 800"><defs><linearGradient x1="50%" y1="0%" x2="50%" y2="100%" id="ccchaos-grad"><stop stop-color="hsl(206, 75%, 49%)" stop-opacity="1" offset="0%"></stop><stop stop-color="hsl(331, 90%, 56%)" stop-opacity="1" offset="100%"></stop></linearGradient></defs><g stroke-width="2" stroke="url(#ccchaos-grad)" fill="none" stroke-linecap="round"><path d="M371.56 41.9C380.25 38.89 396.96 33.57 404.98 31.67 412.86 30.52 427.98 31.1 435.23 32.94 442.41 35.82 456.33 44.28 463.16 49.58 467.75 53.35 472.31 57.31 476.87 61.39 481.53 65.43 486.21 69.48 490.95 73.49 495.83 77.31 500.8 81.01 505.89 84.57 511.17 87.83 516.61 90.9 522.24 93.78 528.11 96.35 534.2 98.74 540.55 100.96 547.16 102.9 554.06 104.73 561.25 106.48 576.48 109.44 592.95 112.53 610.61 116.04 629.14 119.68 648.48 124.28 668.26 129.98 687.89 136.42 707.01 144.13 724.93 153.04 741.1 162.78 754.84 173.56 765.42 185.2 769.51 191.23 772.66 197.43 774.79 203.76 776.04 210.18 776.26 216.72 775.42 223.33 773.75 230 771.08 236.72 767.47 243.48 763.21 250.26 758.15 257.06 752.41 263.86 746.33 270.67 739.81 277.47 733 284.24 726.27 291.01 719.55 297.76 713.01 304.48 707.01 311.18 701.51 317.86 696.66 324.52 692.79 331.15 689.83 337.76 687.9 344.36 687.24 350.93 687.75 357.49 689.5 364.04 692.59 370.58 696.9 377.1 702.38 383.62 709.05 390.13 716.71 396.64 725.21 403.13 734.48 409.63 744.27 416.12 754.35 422.6 764.62 429.07 774.63 435.46 784.17 441.75 793.25 448.04 801.47 454.22 808.65 460.29 814.86 466.35 819.77 472.29 823.29 478.1 825.92 486.69 821.77 503.05 815.2 510.75 809.24 515.77 802.12 520.58 794 525.17 785.08 529.7 775.44 533.99 765.25 538.04 754.69 542.02 743.88 545.75 732.99 549.23 722.18 552.65 711.55 555.82 701.24 558.76 691.37 561.66 682.03 564.34 673.3 566.83 665.26 569.33 657.95 571.68 651.39 573.91 643.16 577.36 628.81 588.63 625.84 597.83 626.77 605.88 628.67 615.4 630.91 626.64 633.83 639.8 636.08 654.58 637.23 670.67 637.91 687.6 636.97 704.63 634.32 720.83 632.64 728.39 630.52 735.4 627.97 741.75 623.56 749.78 612.41 759.9 605.77 761.68 598.52 761.08 582.39 754.07 573.64 748.3 567.62 744.01 561.44 739.48 555.11 734.87 548.71 730.59 542.19 726.63 535.58 723.19 528.92 720.6 522.2 718.85 515.43 718.05 508.64 718.45 501.81 719.95 494.97 722.57 488.12 726.38 481.26 731.2 474.41 736.9 467.56 743.43 460.72 750.5 453.9 757.87 447.08 765.41 440.28 772.75 433.51 779.62 426.73 785.9 420.05 791.16 413.48 795.23 406.9 798.15 400.4 799.64 394 799.66 387.59 798.37 381.25 795.65 374.99 791.61 368.71 786.48 362.5 780.32 356.34 773.31 350.15 765.75 344.01 757.75 337.92 749.56 331.78 741.44 325.67 733.53 319.6 726.02 313.47 719.14 307.36 712.94 301.27 707.54 295.11 703.1 288.97 699.56 282.82 696.93 276.62 695.31 270.42 694.54 264.22 694.52 257.96 695.33 251.7 696.69 245.44 698.47 239.13 700.72 232.83 703.13 226.54 705.54 220.23 708.03 213.93 710.27 207.67 712.14 195.14 714.97 182.83 715.24 170.87 712.64 159.14 707.58 147.92 699.56 137.36 688.96 127.28 676.43 118 662.16 109.61 646.78 101.82 630.73 94.95 614.45 89.02 598.34 86.24 590.39 83.68 582.58 81.32 574.92 79.04 567.4 76.95 560.06 75.04 552.91 73.16 545.92 71.43 539.12 69.84 532.49 68.25 526.03 66.76 519.72 65.37 513.56 63.93 507.54 62.57 501.63 61.28 495.82 59.25 487.32 55.31 470.68 53.38 462.46 51.34 454.32 47.41 437.91 45.55 429.6 43.65 421.24 40.26 404.14 38.82 395.37 37.89 389.5 37.1 383.53 36.46 377.48 35.84 371.43 35.39 365.36 35.13 359.28 34.91 353.21 34.89 347.14 35.08 341.07 35.33 335.02 35.8 328.98 36.48 322.97 37.25 316.98 38.25 311.04 39.48 305.15 40.8 299.29 42.36 293.5 44.14 287.79 46.03 282.13 48.13 276.57 50.45 271.12 54.17 263.1 62.65 247.84 67.36 240.67 72.24 233.78 82.54 221.01 87.87 215.14 93.15 209.55 103.72 199.3 108.93 194.58 115.47 188.33 121.96 182.46 128.37 176.8 134.22 170.63 140.07 164.3 145.99 157.65 151.53 150.06 157.31 141.91 163.4 133.17 169.4 123.52 175.89 113.45 182.91 103.2 186.47 97.97 190.18 92.81 194.04 87.76 197.96 82.79 202.04 78.02 206.28 73.51 212.81 67.21 226.74 56.91 234.11 53.07 241.73 50.19 257.64 47.12 265.89 46.79 274.32 47.05 291.59 48.71 300.37 49.75 306.28 50.27 312.22 50.71 318.16 51.02 324.13 51 330.1 50.78 336.07 50.33 342.04 49.49 347.99 48.42 353.91 47.13 359.84 45.52 365.72 43.75 371.56 41.9" stroke-dasharray="1 8" transform="rotate(0, 400, 400)" opacity="0.05"></path><path d="M366.3 53.08C374.62 50.05 390.78 44.66 398.62 42.67 406.36 41.4 421.43 41.59 428.78 43.18 438.6 46.71 448.24 52.04 457.79 58.82 467.63 66.23 477.62 74.29 487.89 82.53 498.73 90.16 510.15 97.33 522.3 103.83 535.29 109.13 549.25 113.75 564.24 117.83 580.14 121.04 597.07 124.18 614.89 127.53 633.22 130.8 651.99 134.8 670.79 139.7 689.09 145.16 706.51 151.77 722.4 159.52 736.38 168.03 747.78 177.62 756.01 188.12 761.2 199.24 762.68 211.06 760.31 223.39 755.07 236.06 746.6 249.03 735.51 262.15 723.57 275.39 710.86 288.66 698.54 301.89 688.55 315.12 681.14 328.27 677.27 341.29 677.1 347.8 678.03 354.28 680.09 360.72 683.4 367.17 687.81 373.59 693.3 379.97 699.86 386.36 707.31 392.71 715.53 399.02 724.45 405.34 733.83 411.62 743.48 417.86 753.29 424.1 762.87 430.22 772 436.21 780.74 442.2 788.68 448.06 795.68 453.78 801.8 459.48 806.73 465.04 810.39 470.45 812.89 475.83 814.01 481.05 813.75 486.09 809.55 496.07 800.2 505.29 786.48 513.68 769.57 521.89 750.19 529.25 729.55 535.75 708.79 542.17 688.78 547.88 670.37 553.03 654.23 558.46 640.68 563.72 629.87 569.12 622.05 575.46 616.75 582.5 613.59 590.57 612.69 600.23 613.03 611.31 614.04 623.93 616.02 638.08 617.73 653.45 618.75 669.62 619.65 686.06 619.28 702.06 617.48 716.76 615.01 729.55 610.95 739.54 605.38 746.01 599.04 749.17 591.32 748.49 582.38 744.23 572.87 737.88 562.39 729.71 551.13 721.01 539.55 713.9 527.41 708.94 514.87 707.25 508.55 708.07 502.16 709.91 495.71 712.77 489.25 716.73 482.74 721.59 476.2 727.24 469.65 733.63 463.08 740.48 456.49 747.58 449.9 754.82 443.29 761.85 436.67 768.44 430.06 774.48 423.51 779.56 417.02 783.54 410.53 786.47 404.11 788.06 397.74 788.29 391.37 787.29 385.05 784.95 378.78 781.35 372.49 776.72 366.25 771.06 360.05 764.56 347.57 750 335.21 734.27 322.92 718.95 310.48 705.61 298.06 694.92 285.66 687.42 273.1 683.65 260.54 682.89 248.01 684.46 235.39 688.21 222.85 692.52 210.48 696.39 198.18 699.77 186.17 701.18 174.57 700.17 163.28 697.11 152.56 691.29 142.53 682.92 133.02 672.6 124.32 660.33 116.53 646.63 109.31 631.96 103 616.65 97.6 601.15 92.64 585.61 88.45 570.36 84.97 555.6 81.6 541.28 78.73 527.54 76.27 514.39 73.58 501.72 71.12 489.49 68.85 477.63 66.15 466.09 63.58 454.71 61.17 443.41 59.15 435.02 55.26 418.17 53.45 409.68 52.21 404.02 51.07 398.32 50.05 392.56 49 386.81 48.1 381.01 47.34 375.16 46.31 366.4 45.25 349.01 45.27 340.4 45.62 331.85 47.59 315.04 49.23 306.83 51.91 296.01 55.53 285.57 60.05 275.62 64.94 265.85 70.62 256.64 76.97 248.07 83.43 239.7 90.36 231.98 97.62 224.93 104.65 217.95 111.79 211.52 118.97 205.55 125.63 199.36 132.23 193.35 138.74 187.39 144.67 180.78 150.56 173.91 156.46 166.62 161.93 158.41 167.57 149.66 173.43 140.4 179.11 130.39 185.19 120.13 191.71 109.88 198.28 99.61 205.41 89.97 213.1 81.32 220.97 73.58 229.43 67.37 238.42 62.9 247.64 59.71 257.35 58.18 267.47 58.14 277.78 58.66 288.42 59.9 299.3 61.42 307.55 62.1 324.24 62.32 332.65 61.67 341.08 60.23 357.92 55.83 366.29 53.08" stroke-dasharray="1 9" transform="rotate(3.15625, 400, 400)" opacity="0.08"></path><path d="M363.23 64.25C373.95 60.07 384.44 56.4 394.68 53.71 404.95 51.83 415.03 51.71 424.98 53.48 435.04 56.64 445.09 61.59 455.22 68.03 465.66 75.2 476.38 83.12 487.51 91.36 499.18 99.17 511.49 106.63 524.54 113.53 538.31 119.32 552.96 124.43 568.5 128.95 584.71 132.51 601.69 135.85 619.26 139.2 637.02 142.28 654.87 145.86 672.37 150.14 689.09 154.79 704.62 160.43 718.39 167.1 730.15 174.43 739.27 182.81 745.29 192.13 748.49 202.06 748.26 212.78 744.57 224.1 738.47 235.84 729.63 248 718.68 260.42 707.29 273.04 695.52 285.79 684.41 298.56 675.71 311.41 669.59 324.21 666.85 336.89 668.54 349.6 674.36 362.17 684.22 374.57 697.99 386.97 714.5 399.19 732.6 411.16 751.32 423.13 768.45 434.53 782.71 445.34 793.85 456.1 800.32 466.21 801.74 475.62 798.68 484.95 790.74 493.53 778.57 501.35 763.25 509.1 745.33 516.12 725.88 522.48 705.96 528.91 686.34 534.89 667.85 540.57 651.15 546.73 636.62 553 624.48 559.65 615.02 567.34 607.93 575.87 602.96 585.5 600.23 596.56 598.9 608.9 598.5 622.5 599.29 637.23 600.17 652.73 600.71 668.52 601.44 684.09 601.25 698.76 599.94 711.73 596.66 726.58 582.4 735.65 571.62 729.7 563.53 723.16 554.4 715.32 544.4 707.36 534.09 701.24 523.09 697.35 511.55 696.62 499.87 700.08 487.78 707.23 475.39 717.58 462.96 730.54 450.3 744.33 437.45 757.27 424.61 768.15 411.89 774.94 399.32 776.87 386.72 774.3 374.23 766.94 361.83 755.68 349.37 742.06 336.96 727.01 324.58 711.99 312.1 698.45 299.63 687.09 287.17 678.51 274.63 673.34 262.1 671.05 249.64 671.17 237.17 673.65 224.85 677.09 212.74 680.6 200.8 684.15 189.21 686.29 178.09 686.5 167.33 685.11 157.19 681.24 147.77 674.98 138.89 666.86 130.83 656.69 123.67 644.89 117.06 631.91 111.32 617.98 106.46 603.49 101.99 588.68 98.24 573.85 95.15 559.23 92.13 544.8 89.55 530.79 87.35 517.27 84.88 504.09 82.59 491.36 80.45 479.03 77.84 466.98 75.32 455.19 72.91 443.62 70.04 432.18 67.35 420.82 64.91 409.51 62.23 398.23 59.96 386.92 58.22 375.58 56.53 364.24 55.61 353.13 55.5 342.3 55.72 331.48 56.88 320.98 58.98 310.86 61.56 300.81 65.1 291.21 69.54 282.13 74.4 273.16 80.05 264.75 86.38 256.94 92.87 249.21 99.83 242.06 107.14 235.44 114.25 228.76 121.5 222.47 128.78 216.47 135.59 210.11 142.34 203.78 148.98 197.33 155.05 190.19 161.05 182.69 167.01 174.75 172.5 165.95 178.08 156.68 183.81 147.01 189.29 136.78 195.07 126.47 201.23 116.36 207.33 106.44 213.91 97.3 220.99 89.27 228.17 82.24 235.89 76.75 244.12 72.97 252.51 70.37 261.39 69.33 270.69 69.62 280.14 70.33 289.95 71.63 300.06 73.11 310.25 73.73 320.67 73.77 331.23 73 341.82 70.78 352.51 67.77 363.22 64.26" stroke-dasharray="6 5" transform="rotate(6.3125, 400, 400)" opacity="0.11"></path><path d="M362.56 75.43C372.91 71.25 383.17 67.55 393.35 64.77 403.55 62.75 413.73 62.38 423.92 63.82 434.24 66.61 444.7 71.17 455.38 77.24 466.35 84.11 477.71 91.84 489.56 100.01 501.89 107.92 514.86 115.62 528.55 122.87 542.8 129.12 557.81 134.73 573.54 139.72 589.68 143.72 606.35 147.38 623.29 150.89 640.14 153.96 656.76 157.32 672.72 161.18 687.67 165.2 701.2 170.05 712.81 175.78 722.39 182.03 729.36 189.26 733.33 197.4 734.77 206.12 733.08 215.66 728.33 225.87 721.62 236.53 712.63 247.7 701.99 259.23 691.29 271.03 680.52 283.04 670.64 295.16 663.21 307.41 658.3 319.66 656.61 331.84 659.05 344.07 665.27 356.18 675.14 368.1 688.57 380.05 704.44 391.78 721.72 403.23 739.58 414.67 755.98 425.54 769.76 435.78 780.75 446 787.47 455.58 789.57 464.49 787.54 473.35 780.93 481.55 770.26 489.11 756.51 496.68 740.07 503.7 721.9 510.26 702.96 517.03 683.93 523.58 665.61 530.08 648.63 537.18 633.39 544.6 620.19 552.58 609.32 561.59 600.64 571.5 593.97 582.46 589.46 594.62 586.45 607.84 584.54 622 583.97 636.85 583.77 652.04 583.55 667.05 583.78 681.42 583.41 694.51 582.22 705.63 579.61 717.56 567.96 721.96 558.84 715.02 551.96 708.48 544.04 701.1 535.19 693.97 526.05 688.84 516.14 685.99 505.58 686.17 494.87 690.24 483.64 697.66 471.97 707.93 460.26 720.5 448.18 733.73 435.8 746.09 423.41 756.55 411.03 763.22 398.69 765.4 386.33 763.43 373.99 756.93 361.68 746.66 349.34 733.99 336.98 719.69 324.64 705.08 312.25 691.51 299.85 679.67 287.46 670.18 275.07 663.74 262.72 660.01 250.47 658.67 238.3 659.78 226.32 662.15 214.62 665.02 203.16 668.38 192.09 670.85 181.55 671.89 171.42 671.79 161.93 669.57 153.2 665.18 144.99 659.14 137.61 651.05 131.1 641.23 125.11 630.15 119.96 617.87 115.63 604.75 111.63 591.08 108.31 577.08 105.59 563.02 102.89 548.93 100.58 535.06 98.59 521.51 96.3 508.17 94.15 495.21 92.1 482.63 89.56 470.26 87.05 458.21 84.61 446.45 81.7 434.81 78.91 423.37 76.34 412.09 73.5 400.85 71.04 389.71 69.09 378.69 67.2 367.66 66.07 356.99 65.76 346.69 65.8 336.4 66.79 326.51 68.74 317.07 71.19 307.67 74.61 298.74 78.95 290.34 83.74 281.98 89.33 274.15 95.61 266.85 102.09 259.53 109.06 252.68 116.39 246.23 123.58 239.6 130.92 233.21 138.32 226.96 145.29 220.24 152.2 213.43 159 206.4 165.26 198.66 171.41 190.54 177.5 181.98 183.08 172.68 188.7 163.01 194.41 153.07 199.8 142.77 205.41 132.57 211.31 122.75 217.08 113.3 223.26 104.76 229.86 97.43 236.48 91.14 243.59 86.39 251.17 83.27 258.85 81.25 267 80.64 275.59 81.22 284.27 82.08 293.34 83.41 302.76 84.8 312.23 85.31 322 85.21 331.99 84.32 341.99 82.02 352.19 78.97 362.55 75.43" stroke-dasharray="0 3" transform="rotate(9.46875, 400, 400)" opacity="0.14"></path><path d="M364.32 86.61C374.37 82.45 384.47 78.72 394.6 75.87 404.78 73.7 415.07 73.1 425.49 74.22 436.05 76.64 446.87 80.79 458.01 86.46 469.41 92.99 481.27 100.46 493.65 108.5 506.42 116.43 519.81 124.29 533.82 131.84 548.25 138.51 563.29 144.6 578.83 150.09 594.57 154.59 610.57 158.67 626.56 162.47 642.22 165.69 657.36 169.02 671.59 172.66 684.66 176.26 696.14 180.5 705.61 185.47 713.12 190.8 718.07 197 720.23 204.05 720.13 211.6 717.24 219.96 711.69 229.02 704.6 238.53 695.67 248.6 685.5 259.12 675.58 269.94 665.88 281.06 657.23 292.36 651.03 303.83 647.28 315.38 646.57 326.91 649.68 338.52 656.23 350.05 666.08 361.41 679.13 372.81 694.37 384.01 710.84 394.94 727.85 405.87 743.52 416.24 756.81 426.03 767.62 435.81 774.55 445 777.24 453.61 776.15 462.22 770.78 470.28 761.56 477.84 749.34 485.5 734.41 492.79 717.58 499.81 699.74 507.15 681.48 514.48 663.54 521.96 646.53 530.08 630.86 538.68 616.86 547.92 604.85 558.11 594.79 569.16 586.59 581.14 580.41 594.04 575.76 607.73 572.31 621.99 570.27 636.54 568.83 651.01 567.63 664.89 567.07 677.81 566.22 689.16 564.83 698.37 562.37 707.48 552.35 707.82 544.51 700.23 538.61 693.87 531.7 687.09 523.85 680.85 515.76 676.72 506.85 674.86 497.21 675.88 487.43 680.5 477.04 688.13 466.1 698.28 455.12 710.44 443.67 723.11 431.81 734.91 419.95 744.96 407.98 751.5 395.95 753.9 383.93 752.47 371.84 746.79 359.72 737.5 347.61 725.78 335.44 712.3 323.26 698.2 311.08 684.75 298.89 672.59 286.73 662.39 274.63 654.85 262.6 649.78 250.71 647.01 238.98 646.71 227.47 647.87 216.3 649.85 205.43 652.7 195 655.14 185.13 656.62 175.7 657.4 166.93 656.46 158.92 653.67 151.43 649.46 144.74 643.33 138.9 635.47 133.53 626.36 128.95 615.88 125.14 604.38 121.61 592.15 118.68 579.33 116.3 566.21 113.88 552.87 111.8 539.51 109.99 526.31 107.84 513.16 105.78 500.28 103.79 487.72 101.28 475.29 98.77 463.17 96.28 451.37 93.3 439.66 90.42 428.21 87.72 417.01 84.74 405.85 82.11 394.89 79.97 384.14 77.89 373.39 76.57 363.08 76.05 353.23 75.91 343.38 76.73 333.98 78.5 325.06 80.8 316.14 84.08 307.71 88.29 299.78 92.96 291.82 98.46 284.34 104.66 277.3 111.09 270.15 118.04 263.36 125.38 256.84 132.61 250.04 140.04 243.36 147.55 236.68 154.67 229.48 161.76 222.11 168.75 214.45 175.21 206.12 181.57 197.41 187.83 188.32 193.58 178.64 199.32 168.71 205.1 158.66 210.49 148.46 216.05 138.53 221.83 129.15 227.39 120.28 233.29 112.43 239.56 105.85 245.76 100.32 252.39 96.3 259.47 93.83 266.56 92.33 274.12 92.11 282.1 92.93 290.13 93.9 298.58 95.21 307.4 96.51 316.26 96.88 325.45 96.64 334.96 95.62 344.46 93.24 354.25 90.16 364.31 86.61" stroke-dasharray="4 9" transform="rotate(12.625, 400, 400)" opacity="0.17"></path><path d="M368.4 97.79C378.21 93.64 388.18 89.92 398.29 87 408.46 84.7 418.83 83.88 429.45 84.69 440.2 86.73 451.28 90.47 462.74 95.71 474.44 101.85 486.61 109.02 499.28 116.86 512.26 124.73 525.78 132.67 539.82 140.43 554.12 147.47 568.85 154 583.87 159.98 598.88 165.01 613.92 169.57 628.69 173.77 642.93 177.28 656.42 180.76 668.8 184.36 679.94 187.76 689.4 191.61 696.82 196.02 702.38 200.62 705.53 205.97 706.09 212.07 704.71 218.56 700.87 225.81 694.78 233.76 687.53 242.11 678.85 251.06 669.28 260.52 660.24 270.26 651.63 280.39 644.19 290.78 639.18 301.35 636.53 312.08 636.7 322.86 640.4 333.73 647.23 344.59 657.01 355.35 669.67 366.14 684.28 376.78 699.97 387.2 716.15 397.63 731.09 407.58 743.89 417.03 754.48 426.47 761.55 435.42 764.75 443.91 764.52 452.44 760.31 460.56 752.45 468.35 741.73 476.29 728.28 484.03 712.85 491.7 696.21 499.74 678.88 507.93 661.52 516.43 644.72 525.55 628.88 535.22 614.36 545.54 601.48 556.67 590.27 568.55 580.76 581.15 573.07 594.39 566.87 608.11 561.92 622.04 558.38 635.89 555.61 649.3 553.28 661.79 551.73 673.07 550.15 682.6 548.28 689.91 545.5 696.38 536.21 693.34 529.23 685.43 524.05 679.42 517.93 673.33 510.91 668.02 503.69 664.88 495.65 663.96 486.85 665.75 477.92 670.84 468.32 678.63 458.11 688.62 447.85 700.37 437.05 712.48 425.75 723.73 414.45 733.37 402.96 739.77 391.34 742.36 379.74 741.44 368.01 736.53 356.2 728.17 344.42 717.43 332.57 704.79 320.69 691.3 308.86 678.11 297.02 665.82 285.23 655.08 273.55 646.61 261.98 640.35 250.6 636.24 239.42 634.52 228.52 634.39 217.99 635.31 207.8 637.39 198.09 639.46 188.97 641.01 180.3 642.28 172.29 642.24 165.04 640.67 158.29 638.01 152.3 633.61 147.12 627.57 142.36 620.36 138.34 611.74 135.02 601.95 131.9 591.37 129.34 580 127.26 568.1 125.08 555.83 123.19 543.34 121.52 530.81 119.46 518.21 117.47 505.72 115.5 493.46 112.99 481.24 110.46 469.27 107.91 457.6 104.86 446 101.88 434.66 99.05 423.61 95.94 412.59 93.16 401.83 90.85 391.34 88.6 380.84 87.09 370.84 86.39 361.34 86.07 351.81 86.7 342.77 88.28 334.21 90.41 325.62 93.52 317.5 97.56 309.82 102.09 302.07 107.45 294.71 113.54 287.7 119.89 280.52 126.78 273.57 134.08 266.79 141.35 259.66 148.83 252.54 156.42 245.32 163.69 237.59 170.95 229.62 178.12 221.35 184.81 212.49 191.4 203.3 197.87 193.82 203.85 183.91 209.77 173.88 215.69 163.92 221.19 153.97 226.8 144.46 232.56 135.64 238.06 127.45 243.81 120.36 249.87 114.57 255.8 109.81 262.1 106.49 268.81 104.63 275.46 103.62 282.56 103.73 290.07 104.74 297.58 105.77 305.52 107.04 313.86 108.21 322.2 108.44 330.93 108.05 340.03 106.9 349.12 104.45 358.58 101.34 368.39 97.79" stroke-dasharray="2 5" transform="rotate(15.78125, 400, 400)" opacity="0.20"></path><path d="M374.54 108.96C384.15 104.85 394.01 101.13 404.09 98.16 414.22 95.75 424.65 94.72 435.38 95.22 446.23 96.9 457.46 100.21 469.08 105 480.89 110.73 493.16 117.53 505.88 125.1 518.82 132.83 532.2 140.78 545.95 148.67 559.82 155.99 573.94 162.91 588.15 169.35 602.18 174.91 616 179.98 629.34 184.65 642 188.58 653.74 192.34 664.23 196.08 673.45 199.48 680.96 203.15 686.46 207.22 691.04 213.67 686.37 230.09 677.7 240.17 670.5 247.44 662.22 255.32 653.38 263.72 645.27 272.39 637.78 281.49 631.54 290.93 627.65 300.54 626.02 310.38 627.01 320.36 631.23 330.44 638.26 340.57 647.94 350.69 660.2 360.84 674.17 370.92 689.09 380.88 704.45 390.84 718.69 400.42 730.98 409.61 741.32 418.81 748.48 427.66 752.12 436.17 752.66 444.75 749.52 453.08 742.95 461.23 733.66 469.57 721.69 477.87 707.67 486.26 692.31 495.02 676.02 504.06 659.43 513.47 643.06 523.46 627.3 533.99 612.53 545.11 599.04 556.86 586.96 569.19 576.36 582.02 567.37 595.18 559.77 608.51 553.41 621.72 548.41 634.54 544.27 646.62 540.74 657.5 533.17 677.62 520.11 678.62 513.6 670.71 508.88 665.18 503.33 659.85 496.95 655.49 490.42 653.32 483.1 653.29 475.02 655.78 466.84 661.28 457.96 669.16 448.44 678.96 438.87 690.28 428.72 701.84 418.02 712.56 407.32 721.78 396.36 728.03 385.22 730.78 374.11 730.32 362.84 726.15 351.46 718.7 340.12 708.91 328.71 697.16 317.26 684.36 305.9 671.56 294.55 659.28 283.27 648.19 272.15 638.99 261.16 631.69 250.41 626.36 239.9 623.28 229.7 621.82 219.92 621.57 210.49 622.66 201.57 624.09 193.24 625.38 185.36 626.75 178.15 627.22 171.67 626.51 165.64 625.03 160.35 622.06 155.82 617.6 151.64 612.14 148.13 605.29 145.26 597.23 142.53 588.36 140.29 578.57 138.46 568.09 136.48 557.14 134.73 545.78 133.15 534.2 131.17 522.44 129.2 510.64 127.22 498.92 124.69 487.18 122.1 475.6 119.48 464.26 116.36 452.93 113.29 441.85 110.34 431.04 107.11 420.26 104.2 409.73 101.72 399.49 99.32 389.24 97.65 379.5 96.76 370.25 96.26 360.98 96.7 352.17 98.09 343.82 100.03 335.41 102.95 327.41 106.79 319.8 111.15 312.07 116.34 304.65 122.26 297.49 128.49 290.1 135.29 282.85 142.52 275.66 149.77 268.1 157.28 260.47 164.93 252.68 172.32 244.41 179.72 235.89 187.08 227.1 194 217.81 200.82 208.29 207.53 198.58 213.76 188.61 219.92 178.68 226.03 168.96 231.73 159.44 237.47 150.49 243.32 142.34 248.85 134.92 254.59 128.63 260.57 123.64 266.36 119.64 272.47 117 278.94 115.69 285.31 115.1 292.07 115.49 299.24 116.63 306.37 117.69 313.92 118.88 321.89 119.91 329.83 119.98 338.19 119.43 346.97 118.16 355.73 115.65 364.91 112.51 374.53 108.97" stroke-dasharray="10 10" transform="rotate(18.9375, 400, 400)" opacity="0.23"></path><path d="M382.33 120.14C391.78 116.07 401.52 112.36 411.54 109.35 421.61 106.84 432.02 105.61 442.76 105.83 453.59 107.14 464.82 110.02 476.43 114.36 488.17 119.63 500.33 126.03 512.85 133.26 525.49 140.78 538.46 148.64 551.66 156.57 564.84 164.09 578.09 171.32 591.23 178.16 604.06 184.22 616.48 189.81 628.25 194.98 639.25 199.4 649.21 203.56 657.82 207.59 668.04 213.02 677 224.76 675.24 231.68 672.06 236.58 667.09 242.08 660.59 248.18 653.62 254.5 645.88 261.41 637.86 268.85 630.74 276.51 624.36 284.63 619.27 293.13 616.45 301.79 615.76 310.75 617.48 319.93 622.14 329.18 629.33 338.59 638.87 348.08 650.71 357.59 664.05 367.13 678.21 376.65 692.78 386.18 706.32 395.46 718.09 404.48 728.16 413.52 735.35 422.33 739.36 430.96 740.59 439.67 738.42 448.28 733.05 456.85 725.13 465.63 714.6 474.5 701.99 483.56 687.97 492.97 672.83 502.72 657.14 512.87 641.4 523.49 625.95 534.6 611.18 546.19 597.37 558.19 584.69 570.58 573.25 583.21 563.19 595.9 554.39 608.47 546.76 620.63 540.4 632.16 534.95 642.7 530.19 651.88 519.75 667.04 504.67 663.78 498.28 656.13 493.77 651.2 488.56 646.7 482.62 643.3 476.59 642.05 469.82 642.85 462.34 645.96 454.78 651.78 446.54 659.72 437.66 669.29 428.73 680.17 419.2 691.19 409.11 701.38 399.02 710.2 388.64 716.29 378.05 719.17 367.5 719.13 356.76 715.64 345.91 709.06 335.12 700.22 324.25 689.38 313.35 677.33 302.58 665.02 291.83 652.93 281.19 641.66 270.72 631.92 260.44 623.77 250.41 617.36 240.66 613.01 231.25 610.25 222.28 608.77 213.67 608.75 205.58 609.32 198.09 610.06 187.81 611.49 171.25 609.93 165.01 605.82 161.37 601.85 158.34 596.58 155.87 590.13 153.48 582.93 151.5 574.75 149.87 565.76 148.05 556.26 146.41 546.21 144.88 535.77 142.92 525.08 140.94 514.2 138.92 503.26 136.35 492.23 133.7 481.24 131 470.39 127.8 459.53 124.63 448.84 121.58 438.37 118.25 427.92 115.21 417.68 112.6 407.69 110.06 397.7 108.23 388.19 107.17 379.12 106.5 370.03 106.75 361.36 107.94 353.08 109.67 344.74 112.37 336.73 116 329.04 120.14 321.2 125.13 313.58 130.86 306.12 136.92 298.42 143.58 290.77 150.7 283.11 157.89 275.09 165.38 266.94 173.05 258.62 180.52 249.88 188.04 240.91 195.55 231.72 202.68 222.18 209.73 212.49 216.68 202.75 223.18 192.91 229.6 183.25 235.96 173.96 241.91 165 247.86 156.73 253.86 149.35 259.54 142.74 265.36 137.28 271.36 133.09 277.14 129.81 283.19 127.8 289.54 127 295.76 126.77 302.33 127.38 309.28 128.6 316.15 129.64 323.43 130.73 331.13 131.59 338.78 131.5 346.87 130.8 355.4 129.39 363.91 126.82 372.88 123.67 382.32 120.15" stroke-dasharray="6 9" transform="rotate(22.09375, 400, 400)" opacity="0.26"></path><path d="M391.28 131.32C400.57 127.3 410.17 123.62 420.09 120.58 430.04 117.98 440.34 116.58 450.96 116.52 461.67 117.48 472.74 119.93 484.14 123.79 495.63 128.6 507.45 134.54 519.54 141.39 531.67 148.61 543.99 156.29 556.38 164.17 568.65 171.78 580.82 179.24 592.71 186.4 604.19 192.9 615.11 198.98 625.23 204.65 634.55 209.6 642.74 214.24 649.56 218.67 657.24 224.52 661.98 236.28 658.84 242.76 655.12 247.2 649.94 252.14 643.55 257.58 636.97 263.15 629.89 269.26 622.76 275.88 616.64 282.64 611.36 289.88 607.38 297.54 605.57 305.31 605.73 313.44 608.11 321.85 613.14 330.33 620.43 339.04 629.8 347.92 641.21 356.83 653.92 365.86 667.33 375 681.12 384.14 693.97 393.16 705.22 402.05 714.98 410.97 722.17 419.8 726.48 428.58 728.3 437.44 727.02 446.34 722.77 455.31 716.13 464.47 707 473.83 695.8 483.43 683.13 493.33 669.22 503.58 654.56 514.2 639.61 525.16 624.69 536.51 610.16 548.18 596.28 560.07 583.26 572.13 571.25 584.18 560.37 596.05 550.59 607.56 541.88 618.4 534.32 628.46 527.65 637.36 521.72 644.82 514.38 653.04 502.07 657.82 496.21 654.61 492.48 651.12 488.39 646.68 483.84 641.77 476.8 635.71 459.66 631.84 449.47 636.27 442.4 642.37 434.69 650.3 426.38 659.62 418.02 670.05 409.09 680.53 399.61 690.2 390.13 698.62 380.35 704.53 370.37 707.52 360.41 707.86 350.28 705.02 340.04 699.26 329.87 691.35 319.64 681.43 309.4 670.18 299.3 658.47 289.25 646.69 279.34 635.43 269.63 625.33 260.12 616.53 250.91 609.21 241.97 603.72 233.41 599.72 225.3 597.02 217.53 595.81 210.29 595.36 203.64 595.33 194.55 596.13 180.1 595.35 174.73 592.54 170.27 587.77 163.85 571.75 161.49 560.89 159.77 552.87 158.18 544.19 156.66 535 154.69 525.52 152.68 515.71 150.6 505.7 147.97 495.56 145.25 485.34 142.46 475.13 139.18 464.89 135.92 454.72 132.77 444.68 129.35 434.65 126.21 424.76 123.48 415.05 120.82 405.34 118.85 396.03 117.63 387.11 116.79 378.15 116.85 369.55 117.83 361.26 119.34 352.9 121.81 344.8 125.19 336.92 129.09 328.89 133.84 320.99 139.34 313.18 145.2 305.13 151.67 297.06 158.63 288.93 165.72 280.48 173.13 271.89 180.77 263.13 188.29 254.04 195.89 244.77 203.51 235.37 210.82 225.74 218.07 216.08 225.25 206.51 232.02 196.99 238.71 187.78 245.33 179.07 251.56 170.8 257.76 163.3 263.98 156.76 269.87 150.99 275.86 146.36 281.98 142.94 287.85 140.35 293.94 138.91 300.29 138.54 306.47 138.61 312.96 139.38 319.8 140.64 326.53 141.62 333.65 142.57 341.18 143.25 348.64 142.99 356.53 142.13 364.87 140.61 373.19 137.99 381.98 134.82 391.27 131.32" stroke-dasharray="1 1" transform="rotate(25.25, 400, 400)" opacity="0.29"></path><path d="M400.79 142.5C409.92 138.53 419.36 134.89 429.1 131.84 438.87 129.17 448.96 127.6 459.36 127.28 469.8 127.9 480.56 129.94 491.58 133.33 502.63 137.64 513.93 143.1 525.37 149.51 536.78 156.37 548.25 163.78 559.65 171.51 570.84 179.12 581.78 186.69 592.3 194.08 602.34 200.93 611.7 207.45 620.17 213.59 627.85 219.07 634.36 224.22 639.53 229.11 644.93 235.57 646.15 247.86 642.01 254.22 638 258.44 632.81 263.03 626.71 268.04 620.65 273.07 614.31 278.58 608.12 284.55 603.01 290.6 598.81 297.11 595.88 304.04 595 311.05 595.94 318.45 598.88 326.18 604.22 333.97 611.56 342.05 620.72 350.38 631.68 358.73 643.77 367.31 656.46 376.1 669.48 384.88 681.64 393.67 692.37 402.46 701.81 411.27 708.94 420.12 713.49 429.02 715.82 438.01 715.33 447.13 712.1 456.4 706.68 465.83 698.87 475.51 689.04 485.45 677.75 495.62 665.11 506.1 651.57 516.87 637.57 527.85 623.35 539.09 609.27 550.48 595.58 561.89 582.48 573.27 570.16 584.42 558.72 595.2 548.22 605.4 538.65 614.76 530.07 623.25 522.34 630.5 515.35 636.27 506.38 642.18 491.3 643.61 484.43 639.7 480.14 636.19 475.65 632.04 470.85 627.71 463.61 622.84 446.8 621.48 437.06 626.72 430.35 633.01 423.08 640.89 415.26 649.94 407.41 659.92 399.03 669.87 390.13 679.02 381.24 687.04 372.08 692.78 362.72 695.84 353.4 696.52 343.92 694.27 334.35 689.3 324.86 682.28 315.33 673.28 305.83 662.88 296.47 651.85 287.2 640.51 278.09 629.41 269.18 619.15 260.51 609.88 252.16 601.84 244.08 595.38 236.38 590.27 229.14 586.4 219.02 583.21 202.04 581.28 195.29 580.91 189.56 580.27 181.1 574.78 178.14 569.41 176.25 565.01 174.64 559.68 173.26 553.49 171.6 546.86 170.02 539.52 168.48 531.59 166.47 523.36 164.39 514.69 162.23 505.7 159.53 496.55 156.72 487.21 153.84 477.75 150.49 468.24 147.15 458.69 143.91 449.16 140.42 439.63 137.19 430.15 134.36 420.75 131.59 411.36 129.5 402.26 128.13 393.45 127.13 384.62 127 376.05 127.76 367.71 129.05 359.3 131.27 351.06 134.39 342.95 138.03 334.71 142.5 326.53 147.73 318.36 153.35 309.99 159.59 301.55 166.34 293.03 173.27 284.25 180.56 275.34 188.12 266.29 195.61 257.02 203.24 247.64 210.92 238.22 218.36 228.71 225.78 219.29 233.15 210.08 240.17 201.05 247.11 192.46 253.99 184.46 260.51 176.97 266.99 170.32 273.46 164.64 279.61 159.72 285.81 155.9 292.11 153.21 298.16 151.25 304.38 150.31 310.8 150.3 317.04 150.6 323.55 151.48 330.36 152.71 337.06 153.6 344.11 154.39 351.53 154.88 358.88 154.45 366.64 153.43 374.85 151.8 383.01 149.13 391.65 145.97 400.78 142.5" stroke-dasharray="4 6" transform="rotate(28.40625, 400, 400)" opacity="0.32"></path><path d="M410.25 153.67C419.2 149.78 428.43 146.18 437.92 143.13 447.44 140.4 457.23 138.69 467.26 138.14 477.32 138.43 487.62 140.06 498.09 142.98 508.56 146.79 519.16 151.74 529.79 157.66 540.33 164.1 550.79 171.17 561.06 178.65 571.06 186.14 580.68 193.72 589.76 201.23 598.34 208.34 606.16 215.19 613.04 221.75 619.17 227.72 624.15 233.37 627.83 238.75 631.26 245.91 629.7 259.15 624.93 265.68 620.83 269.88 615.82 274.34 610.16 279.13 604.72 283.85 599.2 288.97 593.97 294.49 589.87 300.02 586.69 305.98 584.76 312.35 584.72 318.75 586.36 325.55 589.8 332.72 595.37 339.91 602.71 347.45 611.63 355.31 622.13 363.18 633.61 371.35 645.58 379.82 657.86 388.29 669.35 396.86 679.55 405.53 688.64 414.22 695.67 423.04 700.39 432 703.16 441.03 703.37 450.24 701.07 459.66 696.77 469.2 690.22 478.98 681.72 489.01 671.78 499.18 660.45 509.59 648.1 520.2 635.15 530.88 621.79 541.66 608.34 552.43 595.06 563.06 582.13 573.47 569.75 583.45 558.03 592.94 547.05 601.7 536.85 609.5 527.49 616.41 518.89 622.06 510.99 626.27 503.85 629.36 497.25 630.92 491.09 630.95 485.48 630.05 480.1 627.89 474.84 624.71 467.41 619.5 452.11 610.34 443.82 608.74 438.23 609.94 432.22 612.77 425.76 617.29 419.29 623.72 412.36 631.5 404.95 640.25 397.52 649.76 389.63 659.19 381.3 667.85 372.96 675.47 364.41 681.01 355.69 684.14 347.01 685.11 338.21 683.4 329.35 679.18 320.57 673.02 311.79 664.93 303.07 655.4 294.49 645.12 286.03 634.33 277.77 623.53 269.69 613.29 261.88 603.75 254.41 595.18 247.18 587.93 240.34 581.86 233.97 576.92 225.08 572.02 210.34 567.25 204.56 566.05 195.98 562.92 187.25 550.95 185.16 543.77 183.51 538.36 181.9 532.23 180.3 525.48 178.22 518.45 176.06 510.9 173.8 502.94 171.01 494.83 168.11 486.4 165.14 477.75 161.72 469.04 158.32 460.17 155 451.22 151.45 442.25 148.16 433.22 145.23 424.17 142.38 415.12 140.18 406.26 138.67 397.59 137.52 388.9 137.21 380.36 137.76 371.97 138.82 363.52 140.78 355.16 143.61 346.86 146.96 338.43 151.14 330.02 156.06 321.57 161.4 312.96 167.36 304.26 173.86 295.48 180.58 286.52 187.69 277.46 195.1 268.32 202.52 259.05 210.11 249.77 217.79 240.54 225.31 231.35 232.84 222.36 240.34 213.69 247.57 205.31 254.74 197.46 261.84 190.27 268.63 183.65 275.38 177.88 282.11 173.07 288.53 168.98 294.99 165.92 301.5 163.9 307.77 162.49 314.17 161.98 320.72 162.26 327.1 162.73 333.69 163.65 340.54 164.82 347.27 165.58 354.31 166.19 361.69 166.48 368.99 165.87 376.67 164.7 384.75 162.96 392.8 160.26 401.29 157.11 410.24 153.68" stroke-dasharray="0 10" transform="rotate(31.5625, 400, 400)" opacity="0.35"></path><path d="M419.04 164.85C427.78 161.03 436.75 157.49 445.92 154.45 455.1 151.69 464.5 149.85 474.06 149.08 483.62 149.07 493.34 150.3 503.13 152.76 512.88 156.07 522.65 160.49 532.34 165.88 541.9 171.85 551.26 178.5 560.31 185.65 569.06 192.92 577.34 200.39 585 207.9 592.15 215.14 598.51 222.23 603.91 229.1 608.63 235.49 612.24 241.6 614.64 247.44 616.46 255.35 612.84 269.79 607.77 276.7 603.77 281.06 599.11 285.6 594 290.35 589.27 294.98 584.62 299.91 580.36 305.17 577.23 310.39 575.03 315.99 574.01 321.96 574.74 327.93 576.98 334.28 580.83 341.01 586.58 347.74 593.87 354.85 602.52 362.31 612.56 369.77 623.43 377.59 634.7 385.77 646.26 393.94 657.08 402.29 666.76 410.8 675.48 419.33 682.37 428.05 687.2 436.94 690.33 445.9 691.15 455.06 689.69 464.42 686.42 473.86 681.05 483.52 673.82 493.37 665.2 503.27 655.16 513.32 644.05 523.45 632.24 533.53 619.86 543.57 607.21 553.43 594.53 563.04 581.99 572.26 569.8 580.91 558.04 589 546.84 596.27 536.27 602.52 526.36 607.91 517.11 612.08 508.5 614.93 500.54 616.81 493.12 617.37 486.15 616.64 479.71 615.24 473.57 612.88 467.63 609.78 462.04 606.75 456.49 603.6 450.9 600.67 445.5 598.78 439.94 597.76 434.16 597.9 428.46 599.79 422.45 603.14 416.11 607.98 409.79 614.48 403.1 622.12 396.03 630.54 388.95 639.59 381.5 648.5 373.68 656.67 365.86 663.9 357.89 669.25 349.8 672.4 341.75 673.63 333.63 672.42 325.5 668.89 317.44 663.56 309.41 656.36 301.5 647.72 293.7 638.23 286.06 628.09 278.65 617.72 271.41 607.66 264.45 598.05 257.84 589.15 251.44 581.3 245.44 574.44 239.89 568.59 232.15 562.1 219.45 554.33 214.52 552.04 207.09 548.27 199.2 538.05 197.13 532.15 195.45 527.72 193.78 522.61 192.09 516.87 189.92 510.91 187.65 504.4 185.28 497.41 182.4 490.28 179.42 482.76 176.36 474.92 172.88 467.01 169.42 458.85 166.04 450.5 162.45 442.13 159.1 433.59 156.11 424.92 153.19 416.26 150.89 407.67 149.26 399.17 147.97 390.66 147.48 382.2 147.82 373.81 148.64 365.37 150.34 356.95 152.88 348.53 155.92 340.02 159.78 331.46 164.37 322.86 169.38 314.15 175.03 305.35 181.23 296.49 187.68 287.53 194.55 278.51 201.76 269.48 209.03 260.44 216.51 251.46 224.13 242.63 231.65 233.95 239.22 225.56 246.8 217.59 254.16 209.98 261.5 202.96 268.79 196.66 275.82 190.93 282.8 186.04 289.76 182.09 296.45 178.78 303.16 176.42 309.89 175 316.4 174.06 323 173.9 329.71 174.39 336.26 174.96 342.98 175.86 349.9 176.93 356.71 177.53 363.78 177.95 371.14 178.03 378.43 177.24 386.04 175.94 394.02 174.1 401.96 171.37 410.29 168.24 419.03 164.86" stroke-dasharray="1 0" transform="rotate(34.71875, 400, 400)" opacity="0.38"></path><path d="M426.6 176.03C435.09 172.3 443.73 168.82 452.51 165.81 461.29 163.02 470.2 161.08 479.19 160.11 488.17 159.82 497.2 160.68 506.21 162.69 515.15 165.49 524.01 169.38 532.68 174.22 541.19 179.66 549.41 185.83 557.22 192.57 564.73 199.52 571.69 206.77 577.98 214.16 583.8 221.41 588.81 228.62 592.89 235.69 596.37 242.38 598.82 248.86 600.18 255.12 600.72 263.72 595.75 279.49 590.69 286.92 586.97 291.58 582.77 296.32 578.32 301.2 572.47 308.37 564.45 323.82 563.62 332.26 565.03 337.96 567.8 344.01 571.99 350.43 577.85 356.83 585.04 363.6 593.41 370.74 602.97 377.87 613.23 385.38 623.83 393.28 634.67 401.17 644.85 409.27 654 417.56 662.33 425.87 669.05 434.39 673.94 443.09 677.35 451.82 678.69 460.76 677.98 469.87 675.63 479 671.35 488.3 665.32 497.7 657.97 507.09 649.23 516.51 639.36 525.9 628.74 535.14 617.43 544.2 605.71 552.96 593.8 561.37 581.85 569.28 570.05 576.53 558.51 583.2 547.34 589 536.64 593.79 526.43 597.8 516.77 600.69 507.65 602.37 499.08 603.3 491 603.11 483.38 601.88 476.23 600.23 469.4 597.87 462.85 595.04 456.62 592.46 450.53 589.95 444.51 587.8 438.68 586.71 432.8 586.51 426.82 587.41 420.93 589.89 414.86 593.69 408.57 598.76 402.31 605.28 395.79 612.74 388.99 620.82 382.2 629.41 375.13 637.8 367.78 645.49 360.43 652.34 353 657.47 345.52 660.63 338.07 662.09 330.61 661.33 323.19 658.44 315.83 653.89 308.56 647.56 301.43 639.8 294.4 631.15 287.56 621.72 280.98 611.91 274.54 602.18 268.39 592.67 262.6 583.63 256.99 575.4 251.76 567.95 246.96 561.35 240.26 553.45 229.36 542.74 225.14 539.18 218.62 534.07 211.27 524.24 209.14 519.18 206.51 513.29 200.35 498.3 196.67 489.35 193.7 483.1 190.63 476.41 187.49 469.33 183.96 462.2 180.45 454.73 177.03 446.98 173.41 439.21 170.03 431.18 166.99 422.93 164.02 414.69 161.64 406.42 159.9 398.14 158.48 389.86 157.82 381.56 157.95 373.25 158.54 364.91 159.97 356.53 162.2 348.11 164.93 339.64 168.44 331.1 172.67 322.5 177.33 313.85 182.63 305.14 188.48 296.4 194.61 287.63 201.19 278.87 208.13 270.17 215.18 261.54 222.49 253.06 229.97 244.82 237.41 236.81 244.95 229.16 252.53 222.01 259.96 215.26 267.39 209.13 274.8 203.74 282 198.9 289.17 194.87 296.31 191.73 303.23 189.14 310.15 187.4 317.09 186.49 323.82 185.94 330.61 186.03 337.49 186.66 344.21 187.27 351.06 188.11 358.07 189.03 364.98 189.45 372.09 189.66 379.43 189.53 386.71 188.58 394.27 187.14 402.12 185.21 409.95 182.47 418.1 179.36 426.59 176.03" stroke-dasharray="9 3" transform="rotate(37.875, 400, 400)" opacity="0.41"></path><path d="M432.42 187.21C440.61 183.57 448.88 180.17 457.2 177.2 465.52 174.4 473.88 172.38 482.22 171.23 490.55 170.68 498.82 171.2 506.99 172.77 515.07 175.09 522.96 178.43 530.59 182.72 538.04 187.6 545.12 193.24 551.73 199.48 558.05 206.03 563.77 212.95 568.81 220.11 573.43 227.24 577.26 234.42 580.2 241.56 582.65 248.44 584.16 255.17 584.7 261.74 584.76 267.93 583.89 273.95 582.12 279.8 580.06 285.28 577.27 290.67 573.88 295.99 570.56 301.01 566.93 306.06 563.21 311.17 558.6 318.62 553.24 334.21 553.58 342.54 555.59 348.12 558.81 354.01 563.26 360.22 569.17 366.4 576.23 372.93 584.27 379.81 593.36 386.68 603.02 393.91 612.95 401.53 623.1 409.14 632.64 416.96 641.26 424.96 649.2 432.97 655.71 441.18 660.61 449.55 664.23 457.93 666.01 466.47 665.94 475.12 664.43 483.76 661.15 492.48 656.23 501.22 650.09 509.87 642.59 518.47 633.97 526.9 624.56 535.13 614.38 543.07 603.69 550.6 592.68 557.75 581.48 564.32 570.27 570.18 559.15 575.48 548.24 579.92 537.65 583.41 527.4 586.23 517.56 588.05 508.17 588.83 499.21 589.06 490.68 588.38 482.58 586.88 474.86 585.2 467.5 583.04 460.42 580.61 453.66 578.6 447.08 576.78 440.64 575.42 434.4 575.11 428.21 575.66 422 577.24 415.9 580.25 409.73 584.4 403.44 589.64 397.19 596.12 390.79 603.36 384.21 611.08 377.65 619.2 370.9 627.09 363.97 634.31 357.04 640.78 350.11 645.7 343.2 648.85 336.31 650.49 329.47 650.13 322.73 647.82 316.03 644.01 309.47 638.52 303.08 631.63 296.78 623.83 290.7 615.18 284.89 606.01 279.19 596.74 273.8 587.49 268.76 578.51 263.85 570.1 259.32 562.26 255.19 555.11 249.39 546.06 240 532.62 236.36 527.75 230.49 520.79 223.38 510.2 221.13 505.55 218.34 500.34 211.8 487.18 207.94 479.27 204.88 473.74 201.73 467.77 198.53 461.37 194.96 454.92 191.42 448.09 187.97 440.92 184.34 433.73 180.94 426.22 177.87 418.42 174.86 410.62 172.42 402.71 170.58 394.73 169.04 386.75 168.23 378.69 168.16 370.57 168.52 362.43 169.68 354.22 171.6 345.95 174 337.66 177.16 329.3 181.01 320.9 185.29 312.49 190.19 304.06 195.66 295.64 201.43 287.26 207.66 278.95 214.27 270.77 221.04 262.74 228.09 254.92 235.36 247.43 242.64 240.2 250.06 233.41 257.56 227.15 264.97 221.3 272.41 216.09 279.85 211.6 287.15 207.62 294.43 204.4 301.69 201.99 308.77 200.04 315.85 198.83 322.94 198.33 329.85 198.08 336.81 198.35 343.81 199.04 350.68 199.62 357.64 200.35 364.72 201.09 371.7 201.33 378.85 201.32 386.16 200.98 393.42 199.86 400.9 198.3 408.6 196.3 416.28 193.54 424.22 190.47 432.41 187.21" stroke-dasharray="2 2" transform="rotate(41.03125, 400, 400)" opacity="0.44"></path><path d="M436.13 198.39C443.98 194.85 451.82 191.54 459.63 188.62 467.43 185.83 475.19 183.74 482.85 182.44 490.47 181.67 497.96 181.86 505.25 183.03 512.45 184.87 519.39 187.68 525.99 191.4 532.41 195.7 538.41 200.77 543.9 206.47 549.11 212.53 553.73 219.02 557.67 225.84 561.25 232.72 564.07 239.75 566.09 246.82 567.72 253.74 568.51 260.59 568.47 267.34 568.09 273.81 566.93 280.14 565.06 286.33 563.04 292.21 560.47 297.98 557.47 303.66 554.65 309.07 551.68 314.46 548.72 319.86 545.35 327.69 542.5 343.72 543.88 352.09 546.4 357.66 549.98 363.48 554.62 369.58 560.53 375.63 567.41 381.99 575.12 388.65 583.72 395.31 592.79 402.29 602.07 409.61 611.55 416.92 620.46 424.42 628.56 432.06 636.09 439.7 642.36 447.5 647.21 455.4 650.98 463.3 653.11 471.29 653.61 479.32 652.84 487.31 650.45 495.29 646.56 503.19 641.55 510.97 635.24 518.59 627.83 525.95 619.63 533.08 610.62 539.83 601.01 546.09 591.01 551.99 580.69 557.27 570.23 561.83 559.72 565.9 549.28 569.15 539.01 571.54 528.95 573.4 519.17 574.4 509.73 574.54 500.61 574.31 491.84 573.38 483.45 571.86 475.37 570.33 467.62 568.51 460.17 566.61 452.98 565.22 446.02 564.13 439.24 563.54 432.65 563.98 426.18 565.22 419.77 567.4 413.47 570.84 407.19 575.26 400.88 580.61 394.62 586.99 388.3 593.98 381.91 601.32 375.53 608.98 369.06 616.37 362.51 623.13 355.95 629.23 349.47 633.92 343.08 637.04 336.7 638.83 330.43 638.82 324.31 637.06 318.22 633.93 312.31 629.23 306.61 623.2 300.96 616.25 295.57 608.41 290.45 599.95 285.42 591.27 280.7 582.42 276.32 573.66 272.03 565.27 268.09 557.25 264.53 549.75 261.05 542.94 257.93 536.72 255.19 531.1 251.3 524.04 245.1 513.03 242.63 508.53 237.81 500.62 230.06 487.04 226.95 481.28 223.12 475.02 214.34 460.18 209.46 451.64 205.87 445.78 202.31 439.51 198.85 432.88 195.23 426.23 191.83 419.22 188.74 411.88 185.72 404.53 183.23 397.04 181.32 389.43 179.67 381.82 178.71 374.09 178.45 366.27 178.6 358.46 179.48 350.55 181.1 342.58 183.17 334.63 185.96 326.62 189.42 318.59 193.29 310.6 197.78 302.63 202.83 294.72 208.19 286.91 214.02 279.22 220.25 271.73 226.67 264.43 233.4 257.41 240.37 250.76 247.41 244.41 254.62 238.52 261.95 233.18 269.24 228.24 276.6 223.93 283.99 220.3 291.29 217.11 298.59 214.63 305.88 212.85 313.05 211.44 320.21 210.67 327.37 210.48 334.4 210.44 341.45 210.81 348.53 211.49 355.5 211.99 362.53 212.57 369.62 213.11 376.65 213.13 383.78 212.91 391.03 212.37 398.23 211.09 405.59 209.42 413.1 207.35 420.6 204.6 428.27 201.57 436.12 198.39" stroke-dasharray="1 9" transform="rotate(44.1875, 400, 400)" opacity="0.47"></path><path d="M437.49 209.56C444.95 206.14 452.32 202.93 459.58 200.07 466.84 197.31 473.96 195.18 480.91 193.75 487.82 192.78 494.52 192.68 500.96 193.46 507.3 194.86 513.31 197.16 518.94 200.31 524.41 204.03 529.42 208.5 533.9 213.61 538.15 219.11 541.81 225.1 544.82 231.47 547.54 237.99 549.57 244.72 550.89 251.59 551.9 258.4 552.21 265.23 551.81 272.02 551.19 278.63 549.96 285.15 548.16 291.56 546.34 297.73 544.12 303.8 541.61 309.79 539.38 315.54 537.1 321.24 534.91 326.92 532.75 335.17 532.21 351.76 534.51 360.26 537.45 365.9 541.31 371.72 546.07 377.74 551.93 383.73 558.6 389.95 565.95 396.43 574.06 402.89 582.55 409.62 591.19 416.63 600.01 423.63 608.32 430.75 615.9 437.96 623.01 445.17 629.01 452.47 633.78 459.8 637.62 467.12 640.04 474.45 641 481.73 640.86 488.96 639.28 496.09 636.32 503.05 632.35 509.88 627.16 516.46 620.91 522.71 613.9 528.72 606.06 534.3 597.57 539.36 588.64 544.08 579.3 548.19 569.7 551.62 559.96 554.64 550.16 556.92 540.41 558.45 530.74 559.6 521.24 560.03 511.97 559.78 502.91 559.33 494.13 558.37 485.65 557.01 477.41 555.79 469.45 554.45 461.78 553.15 454.33 552.42 447.11 552.05 440.11 552.2 433.27 553.32 426.58 555.18 420.03 557.86 413.58 561.65 407.21 566.27 400.89 571.64 394.63 577.88 388.38 584.59 382.15 591.55 375.94 598.73 369.71 605.64 363.48 611.96 357.26 617.68 351.17 622.15 345.24 625.2 336.44 627.26 319.77 621.66 312.01 614.47 306.95 608.38 302.15 601.37 297.64 593.68 293.18 585.66 289.03 577.35 285.2 568.96 281.42 560.76 277.97 552.77 274.87 545.12 271.8 537.98 269.05 531.31 266.63 525.12 263.12 517 257.36 503.7 254.95 498.15 249.96 488.68 241.64 474.18 238.3 468.57 234.29 462.64 225.24 448.84 220.3 440.96 216.7 435.55 213.14 429.76 209.68 423.6 206.08 417.43 202.7 410.9 199.62 404.03 196.6 397.15 194.08 390.1 192.1 382.92 190.37 375.74 189.28 368.43 188.84 361.03 188.77 353.65 189.4 346.18 190.71 338.66 192.45 331.18 194.86 323.67 197.92 316.19 201.38 308.77 205.43 301.41 210.03 294.17 214.94 287.07 220.33 280.13 226.12 273.45 232.14 266.98 238.48 260.83 245.09 255.09 251.81 249.64 258.72 244.67 265.79 240.24 272.87 236.18 280.05 232.7 287.28 229.86 294.47 227.38 301.69 225.52 308.92 224.28 316.07 223.3 323.23 222.85 330.37 222.88 337.43 222.96 344.5 223.35 351.57 223.96 358.56 224.34 365.59 224.74 372.64 225.06 379.64 224.86 386.71 224.42 393.84 223.68 400.93 222.27 408.12 220.49 415.39 218.37 422.66 215.64 430.02 212.67 437.48 209.57" stroke-dasharray="6 2" transform="rotate(47.34375, 400, 400)" opacity="0.50"></path><path d="M436.41 220.74C443.44 217.44 450.31 214.33 457 211.55 463.69 208.84 470.17 206.68 476.42 205.16 485.59 203.83 502.3 205.97 509.64 209.48 516.32 214.54 526.89 228.58 530.6 237.13 532.66 243.18 534.1 249.51 534.92 256.04 535.54 262.6 535.56 269.25 535 275.93 534.34 282.52 533.19 289.07 531.62 295.57 530.12 301.9 528.36 308.16 526.43 314.34 524.82 320.34 523.25 326.28 521.84 332.18 520.82 340.8 522.36 357.92 525.44 366.56 528.72 372.27 532.78 378.11 537.6 384.08 543.35 390.02 549.78 396.12 556.76 402.41 564.38 408.68 572.29 415.15 580.32 421.81 588.49 428.48 596.2 435.19 603.27 441.92 609.95 448.64 615.66 455.37 620.3 462.06 624.17 468.73 626.79 475.33 628.13 481.81 628.54 488.22 627.65 494.45 625.52 500.45 622.5 506.31 618.35 511.86 613.19 517.03 607.32 521.99 600.63 526.49 593.26 530.47 585.43 534.17 577.13 537.29 568.49 539.78 559.63 541.97 550.61 543.52 541.54 544.44 532.44 545.12 523.41 545.23 514.52 544.83 505.73 544.38 497.13 543.57 488.77 542.53 480.57 541.74 472.6 540.94 464.89 540.29 457.34 540.23 450.02 540.56 442.92 541.4 435.95 543.12 429.16 545.51 422.54 548.61 416 552.66 409.6 557.4 403.31 562.74 397.07 568.79 390.91 575.2 384.83 581.75 378.77 588.47 372.77 594.9 366.84 600.78 360.9 606.13 355.17 610.37 349.64 613.35 341.46 615.63 326.21 611.51 319.2 605.45 314.64 600.19 310.34 594.01 306.33 587.12 302.34 579.84 298.65 572.16 295.26 564.28 291.89 556.44 288.82 548.65 286.06 541.05 283.29 533.8 280.81 526.87 278.61 520.32 275.34 511.42 269.77 496.19 267.32 489.64 264.68 483.86 259.34 473.08 256.46 467.74 253.03 462.45 245.28 450.87 240.93 444.41 237.66 440.01 234.35 435.28 231.02 430.22 227.43 425.15 223.89 419.74 220.46 413.99 216.91 408.23 213.56 402.15 210.5 395.73 207.49 389.32 204.96 382.74 202.93 376.04 201.13 369.34 199.92 362.53 199.32 355.64 199.05 348.78 199.43 341.86 200.45 334.91 201.86 328.02 203.9 321.14 206.56 314.33 209.59 307.6 213.19 300.97 217.32 294.51 221.76 288.2 226.67 282.1 231.99 276.29 237.54 270.7 243.43 265.45 249.61 260.62 255.93 256.06 262.47 251.97 269.19 248.4 275.96 245.13 282.86 242.41 289.84 240.25 296.83 238.37 303.86 237.03 310.92 236.21 317.95 235.55 324.99 235.33 332.02 235.47 339 235.59 345.99 235.93 352.96 236.42 359.89 236.64 366.83 236.83 373.76 236.91 380.67 236.5 387.59 235.85 394.53 234.92 401.45 233.38 408.41 231.52 415.39 229.36 422.36 226.66 429.37 223.75 436.4 220.75" stroke-dasharray="5 8" transform="rotate(50.5, 400, 400)" opacity="0.53"></path><path d="M432.96 231.92C439.52 228.74 445.87 225.76 452 223.06 458.1 220.41 463.96 218.25 469.54 216.65 480.57 214.48 490.29 215.24 498.4 218.94 506.05 224.54 511.79 232.75 515.42 242.94 518.46 254.13 519.39 266.44 518.37 279.27 517.29 292.02 514.96 304.8 512.03 317.39 510.51 329.49 509.71 341.43 510.42 353.25 514.17 364.7 520.39 376.3 529.19 388.13 534.8 394 540.95 399.97 547.54 406.05 554.66 412.11 562.02 418.3 569.44 424.6 576.99 430.9 584.12 437.17 590.68 443.37 596.92 449.58 602.33 455.71 606.81 461.73 613.77 473.68 616.21 484.98 614.2 495.25 609.06 505.01 600.04 513.29 588.02 519.68 574.15 525.2 558.54 528.61 542.11 529.89 525.32 530.7 508.57 530.07 492.38 528.61 476.56 528.43 461.46 528.99 447.25 531.14 433.43 536.41 420.28 544.07 407.82 553.89 401.65 559.71 395.61 565.79 389.7 571.93 383.8 578.18 378.01 584.15 372.35 589.6 363.97 596.59 348.43 603.92 341.27 603.84 331.89 600.08 323.54 591.84 316.3 580.23 309.06 566.89 302.92 552.21 297.89 537.35 292.7 523.31 288.44 510.22 284.99 498.35 280.97 488.06 277.4 478.74 274.08 470.05 269.67 462.38 265.14 454.65 260.41 446.5 254.35 438.69 248.03 430.01 241.63 420.32 238.07 415.48 234.57 410.36 231.18 404.96 227.69 399.56 224.4 393.87 221.38 387.91 218.41 381.94 215.88 375.85 213.82 369.65 211.96 363.47 210.65 357.21 209.9 350.9 209.32 338.38 211.19 325.82 215.36 313.59 220.9 301.75 228.55 290.58 237.91 280.54 248.23 271.28 259.82 263.54 272.28 257.66 285.12 252.75 298.47 249.72 312.03 248.55 325.6 247.69 339.25 247.94 352.83 248.82 366.33 248.51 379.81 247.72 393.17 246.08 399.85 244.43 406.51 242.5 413.14 240.32 419.78 237.66 426.39 234.83 432.95 231.92" stroke-dasharray="3 10" transform="rotate(53.65625, 400, 400)" opacity="0.55"></path><path d="M427.36 243.1C439.51 236.87 450.64 231.72 460.58 228.25 470.38 225.79 478.8 225.93 485.64 228.71 492.12 233.19 496.83 240.13 499.69 249.04 502.19 259.02 502.95 270.28 502.18 282.26 501.61 294.42 500.2 306.82 498.49 319.16 498.24 331.24 498.78 343.21 500.71 355.02 505.32 366.56 512.03 378.12 520.84 389.69 532.26 401.18 545.13 412.86 558.56 424.68 572.44 436.49 584.31 447.86 593.29 458.61 600.23 469.23 603.26 478.99 602.38 487.57 598.82 495.74 591.73 502.41 581.78 507.34 570.06 511.69 556.49 514.26 541.86 515.16 526.68 516 511.23 515.88 496.02 515.38 480.96 516.31 466.4 518.11 452.59 521.4 439.05 527.42 426.15 535.41 413.98 545.08 401.96 556.53 390.49 568.11 379.66 578.42 368.83 587.16 359.07 591.97 350.36 592.49 341.61 589.76 333.91 582.96 327.28 572.96 320.56 561.17 314.85 547.79 310.13 533.83 305.14 520.2 300.93 507.07 297.38 494.81 293.2 483.74 289.35 473.53 285.68 463.99 280.97 455.38 276.13 446.94 271.12 438.38 264.92 430.2 258.53 421.47 252.13 412.06 244.95 402.7 238.18 392.48 232.25 381.41 226.52 370.34 222.57 358.97 220.59 347.56 219.64 336.27 220.93 325.13 224.36 314.47 229.03 304.18 235.68 294.69 243.99 286.36 253.24 278.7 263.78 272.5 275.24 267.97 287.15 264.15 299.66 261.93 312.45 261.21 325.37 260.5 338.41 260.61 351.39 261.12 364.37 260.38 377.28 259.16 389.98 257.15 402.68 253.18 415.2 248.37 427.35 243.1" stroke-dasharray="7 3" transform="rotate(56.8125, 400, 400)" opacity="0.58"></path><path d="M419.99 254.27C431.14 248.35 441.18 243.4 450 239.93 458.69 237.25 466.02 236.86 471.85 238.8 477.44 242.23 481.45 247.93 483.87 255.53 486.13 264.22 487 274.26 486.71 285.17 486.82 296.46 486.39 308.16 485.9 319.96 486.82 331.69 488.54 343.39 491.52 354.93 496.8 366.32 503.82 377.63 512.54 388.81 523.39 399.94 535.36 411.05 547.69 422.03 560.4 433.02 571.33 443.33 579.78 452.83 586.59 462.21 590.04 470.6 590.1 477.76 587.91 484.62 582.54 490.06 574.52 493.97 564.86 497.57 553.32 499.74 540.58 500.66 527.16 501.84 513.22 502.45 499.25 502.99 485.26 505 471.55 507.92 458.4 512.17 445.41 518.75 432.99 526.9 421.26 536.29 409.65 547.07 398.62 557.77 388.29 567.25 377.96 575.36 368.73 580.05 360.56 581 352.33 579.18 345.11 573.71 338.9 565.26 332.54 555.05 327.09 543.1 322.49 530.29 317.56 517.41 313.27 504.64 309.51 492.38 305.12 480.95 300.96 470.19 296.92 460.07 291.92 450.72 286.81 441.66 281.56 432.7 275.28 424.13 268.87 415.29 262.51 406.07 255.5 396.93 248.91 387.23 243.13 376.96 237.52 366.7 233.56 356.38 231.38 346.22 230.11 336.16 230.87 326.42 233.58 317.31 237.4 308.51 243.07 300.58 250.31 293.81 258.45 287.57 267.86 282.66 278.21 279.23 289.07 276.23 300.58 274.55 312.43 274.05 324.49 273.34 336.73 273.2 348.93 273.26 361.19 272.1 373.36 270.46 385.26 268.14 397.19 264.08 408.84 259.34 419.99 254.27" stroke-dasharray="5 7" transform="rotate(59.96875, 400, 400)" opacity="0.61"></path><path d="M411.31 265.45C421.45 259.85 430.48 255.13 438.31 251.7 449.27 248.46 464.31 253.97 468.36 262.54 470.64 269.88 471.83 278.6 472.18 288.29 473.05 298.46 473.62 309.2 474.28 320.18 476.25 331.25 479 342.37 482.82 353.38 488.59 364.34 495.77 375.18 504.27 385.81 514.5 396.41 525.56 406.84 536.81 416.96 548.39 427.09 558.4 436.39 566.27 444.77 572.85 453.06 576.58 460.29 577.39 466.35 576.35 472.21 572.5 476.81 566.23 480.12 558.5 483.34 548.93 485.48 538.07 486.73 526.49 488.46 514.21 489.92 501.67 491.53 488.98 494.53 476.36 498.41 464.11 503.42 451.92 510.36 440.18 518.51 429.05 527.53 418 537.58 407.5 547.41 397.69 556.07 387.87 563.56 379.12 568.09 371.38 569.39 363.58 568.35 356.72 564.09 350.77 557.11 344.64 548.46 339.31 538.03 334.69 526.53 329.72 514.69 325.28 502.62 321.24 490.76 316.6 479.38 312.12 468.46 307.73 458.07 302.49 448.26 297.14 438.8 291.71 429.58 285.4 420.7 279.03 411.78 272.77 402.74 265.98 393.79 259.61 384.55 254.01 375.05 248.56 365.55 244.62 356.23 242.3 347.26 240.74 338.37 241.02 329.97 243.06 322.28 246.07 314.83 250.78 308.29 256.96 302.85 263.97 297.77 272.21 293.88 281.37 291.25 291.08 288.83 301.46 287.45 312.23 286.97 323.28 286.11 334.54 285.62 345.79 285.22 357.17 283.64 368.44 281.61 379.43 279.02 390.46 274.93 401.16 270.3 411.31 265.45" stroke-dasharray="5 8" transform="rotate(63.125, 400, 400)" opacity="0.64"></path><path d="M401.89 276.63C411.05 271.37 419.15 266.9 426.13 263.56 435.93 260.07 449.59 263.36 453.62 270.15 456.08 276.15 457.74 283.51 458.81 291.87 460.45 300.77 461.96 310.33 463.66 320.26 466.54 330.38 470.11 340.66 474.57 350.89 480.65 361.15 487.84 371.31 496.02 381.21 505.58 391.12 515.72 400.77 525.93 410.02 536.41 419.28 545.51 427.65 552.78 435.06 560.99 445.6 562.92 461.26 556.93 466.39 550.95 469.55 543.22 471.93 534.21 473.73 524.47 476.12 513.9 478.45 502.92 481.05 491.68 484.91 480.34 489.55 469.17 495.12 458 502.22 447.13 510.22 436.73 518.77 426.38 528.07 416.51 537.03 407.23 544.89 397.96 551.77 389.66 556.1 382.29 557.65 374.85 557.29 368.25 554.1 362.45 548.47 356.47 541.34 351.16 532.44 346.44 522.37 341.37 511.78 336.72 500.71 332.4 489.58 327.51 478.65 322.74 467.96 318.04 457.65 312.61 447.74 307.1 438.15 301.56 428.87 295.29 419.86 289.02 410.97 282.91 402.16 276.38 393.44 270.27 384.67 264.89 375.88 259.64 367.1 255.76 358.71 253.33 350.83 251.54 343 251.38 335.78 252.81 329.33 255.07 323.04 258.86 317.64 264.01 313.26 269.9 309.09 276.95 305.94 284.91 303.82 293.39 301.72 302.56 300.43 312.16 299.81 322.05 298.7 332.21 297.82 342.4 296.93 352.73 294.97 362.99 292.62 372.98 289.81 383.03 285.72 392.74 281.24 401.89 276.63" stroke-dasharray="2 1" transform="rotate(66.28125, 400, 400)" opacity="0.67"></path><path d="M392.35 287.81C400.55 282.9 407.8 278.71 414.08 275.5 422.93 271.87 435.75 273.28 439.99 278.43 442.74 283.17 444.92 289.17 446.73 296.17 449.09 303.7 451.46 311.96 454.04 320.67 457.64 329.63 461.83 338.84 466.75 348.09 472.96 357.42 480.02 366.69 487.79 375.73 496.63 384.8 505.87 393.6 515.05 401.98 524.47 410.36 532.67 417.88 539.31 424.51 547.15 433.95 550.77 448.26 546.65 453.33 542.22 456.65 536.18 459.45 528.88 461.91 520.92 464.98 512.07 468.13 502.67 471.58 492.99 476.13 483.03 481.32 473.09 487.22 463.08 494.31 453.21 502.01 443.68 510.01 434.16 518.52 424.99 526.63 416.31 533.71 407.62 539.99 399.78 544.07 392.74 545.81 385.64 545.99 379.25 543.74 373.55 539.35 367.66 533.63 362.32 526.24 357.47 517.65 352.29 508.45 347.43 498.59 342.83 488.47 337.74 478.34 332.74 468.23 327.8 458.36 322.25 448.7 316.66 439.3 311.09 430.22 304.93 421.32 298.82 412.62 292.93 404.15 286.7 395.74 280.89 387.46 275.76 379.37 270.75 371.27 266.97 363.73 264.48 356.81 262.25 346.8 265.9 330.64 271.54 324.76 276.34 321.22 282.23 318.54 288.99 316.69 296.22 314.71 304.14 313.34 312.5 312.45 321.17 311.02 330.13 309.72 339.17 308.38 348.36 306.08 357.52 303.45 366.46 300.49 375.46 296.46 384.16 292.15 392.35 287.81" stroke-dasharray="3 2" transform="rotate(69.4375, 400, 400)" opacity="0.70"></path><path d="M383.31 298.98C390.6 294.45 397.09 290.56 402.77 287.52 410.85 283.86 423.2 283.74 427.78 287.45 430.86 291.01 433.57 295.73 436.05 301.4 439.05 307.56 442.11 314.45 445.39 321.85 449.53 329.53 454.14 337.53 459.31 345.64 465.49 353.88 472.28 362.12 479.57 370.19 487.66 378.31 495.99 386.2 504.19 393.73 512.57 401.25 519.89 408.02 525.89 414.01 533.24 422.61 538.03 436.19 535.46 441.48 532.35 445.08 527.8 448.36 522.08 451.47 515.77 455.16 508.55 458.99 500.72 463.12 492.6 468.13 484.08 473.65 475.42 479.67 466.68 486.57 457.92 493.85 449.33 501.24 440.74 508.95 432.37 516.21 424.32 522.54 416.28 528.2 408.91 532.02 402.21 533.86 395.45 534.47 389.27 533.03 383.63 529.73 377.84 525.31 372.48 519.35 367.5 512.23 362.24 504.48 357.22 495.98 352.41 487.07 347.18 478 342.03 468.78 336.95 459.65 331.38 450.6 325.8 441.7 320.29 433.07 314.32 424.55 308.45 416.25 302.83 408.24 296.95 400.28 291.48 392.55 286.64 385.13 281.9 377.7 278.26 370.91 275.75 364.8 273.25 355.98 275.27 342.02 279.61 336.95 283.4 333.81 288.18 331.36 293.76 329.56 299.76 327.54 306.43 325.97 313.55 324.74 320.95 322.97 328.67 321.27 336.53 319.52 344.52 316.94 352.55 314.12 360.41 311.07 368.34 307.14 376.03 303.04 383.31 298.98" stroke-dasharray="11 1" transform="rotate(72.59375, 400, 400)" opacity="0.73"></path><path d="M375.36 310.16C384.68 304.23 400.2 296.03 406.46 294.5 412.29 294.74 422.2 301.54 426.82 307.74 430.31 312.58 433.89 318.14 437.68 324.22 442.14 330.56 446.97 337.28 452.2 344.2 458.2 351.23 464.62 358.36 471.33 365.41 478.65 372.5 486.07 379.46 493.31 386.15 500.69 392.85 507.15 398.94 512.51 404.41 519.27 412.34 524.76 425.59 523.42 431.22 521.41 435.12 518.14 438.85 513.79 442.52 508.96 446.7 503.26 451.03 496.91 455.6 490.29 460.86 483.2 466.49 475.84 472.42 468.39 478.98 460.79 485.74 453.21 492.44 445.62 499.33 438.1 505.77 430.75 511.36 423.41 516.42 416.56 519.94 410.23 521.82 403.85 522.75 397.9 521.97 392.37 519.61 386.72 516.34 381.38 511.71 376.34 506 371.06 499.7 365.97 492.61 361.04 485.02 355.77 477.2 350.58 469.1 345.47 460.96 339.98 452.79 334.52 444.66 329.16 436.74 323.46 428.85 317.9 421.16 312.6 413.76 307.12 406.39 302.03 399.28 297.52 392.52 293.09 385.76 289.62 379.66 287.15 374.22 284.79 360.18 293.02 345.25 299.38 342.16 304.21 340 309.66 338.17 315.58 336.57 321.72 334.48 328.22 332.42 334.89 330.33 341.68 327.55 348.57 324.61 355.37 321.53 362.22 317.76 368.93 313.92 375.36 310.16" stroke-dasharray="2 1" transform="rotate(75.75, 400, 400)" opacity="0.76"></path><path d="M369.01 321.34C380.24 313.66 389.72 308.56 397.45 306.64 405.49 305.87 412.52 308.96 419.04 315.29 427.04 322.9 435.76 332.97 445.38 344.29 457.25 356.05 470.05 368.31 482.43 380.1 495.25 391.89 504.39 402.01 509.11 410.48 512 419.34 510.07 427.39 504.1 435.12 496.63 444.44 486.2 454.59 474.12 465.41 461.66 477.91 448.37 490.17 435.18 500.18 421.99 508.56 410.06 511.44 399.48 509.01 388.49 503.76 378.22 494.18 368.63 482.03 358.05 468.83 347.61 454.53 337.7 440.48 326.82 426.42 316.69 412.9 308.4 400.74 300.38 388.57 295.92 378.78 294.98 371.36 295.34 363.73 299.25 358.11 305.94 354.19 313.73 349.23 323.64 344.9 334.6 340.78 345.98 334.47 357.77 327.76 369.01 321.34" stroke-dasharray="5 8" transform="rotate(78.90625, 400, 400)" opacity="0.79"></path><path d="M364.67 332.52C374.39 325.71 383.03 321.09 390.54 319.07 398.35 317.74 405.65 319.56 412.67 324.11 420.83 329.57 429.57 337.28 438.81 346.36 449.62 355.78 460.91 365.99 471.56 376.24 482.54 386.49 490.47 395.79 494.84 404.07 497.99 412.71 497.25 421.01 493.09 429.19 487.84 438.53 479.88 448.45 470.16 458.59 460.1 469.76 448.91 480.42 437.32 489 425.72 496.36 414.8 499.29 404.75 497.95 394.43 494.51 384.52 487.38 375.16 477.85 365.1 467.33 355.21 455.5 345.91 443.54 335.96 431.46 326.79 419.65 319.27 408.87 311.98 398.1 307.7 389.3 306.37 382.43 305.98 375.32 308.55 369.73 313.55 365.42 319.35 360.17 327.09 355.38 335.96 350.86 345.14 344.66 354.95 338.35 364.67 332.52" stroke-dasharray="1 7" transform="rotate(82.0625, 400, 400)" opacity="0.82"></path><path d="M362.64 343.69C370.92 337.78 378.7 333.72 385.86 331.75 393.27 330.14 400.51 331.03 407.63 334.16 415.55 337.87 423.89 343.55 432.42 350.62 441.99 357.93 451.71 366.22 460.68 375 469.88 383.77 476.6 392.19 480.5 400.11 483.63 408.3 483.68 416.48 480.94 424.61 477.45 433.51 471.59 442.76 463.99 451.88 456.12 461.57 446.96 470.62 437.03 477.83 427.09 484.14 417.35 486.98 408.1 486.46 398.67 484.47 389.43 479.45 380.61 472.31 371.35 464.35 362.26 455.01 353.79 445.25 344.93 435.33 336.81 425.36 330.15 416.03 323.66 406.7 319.67 398.83 318.11 392.42 317.18 385.78 318.69 380.23 322.25 375.61 326.35 370.24 332.18 365.23 339.17 360.55 346.36 354.66 354.35 348.87 362.64 343.69" stroke-dasharray="7 9" transform="rotate(85.21875, 400, 400)" opacity="0.85"></path><path d="M363.03 354.87C369.94 349.89 376.78 346.44 383.37 344.65 390.15 343 396.98 343.28 403.76 345.35 411.06 347.73 418.64 351.77 426.18 357.13 434.36 362.61 442.47 369.18 449.8 376.5 457.29 383.83 462.8 391.24 466.12 398.52 469 405.97 469.51 413.59 467.81 421.17 465.65 429.2 461.5 437.38 455.74 445.24 449.81 453.34 442.55 460.77 434.32 466.65 426.09 471.91 417.71 474.52 409.53 474.57 401.25 473.66 392.98 470.38 385.03 465.31 376.83 459.64 368.8 452.66 361.37 445.06 353.73 437.32 346.75 429.26 341.03 421.42 335.42 413.59 331.84 406.68 330.2 400.78 329.31 392.01 336.89 376.89 344.32 369.84 349.78 364.47 356.12 359.33 363.03 354.87" stroke-dasharray="6 4" transform="rotate(88.375, 400, 400)" opacity="0.88"></path><path d="M365.83 366.05C376.97 357.79 389.16 354.95 400.91 357.5 413.86 360.59 427.63 368.8 438.92 380.6 450.61 392.39 455.66 405.72 453.92 418.62 451.18 432.36 442.41 446.04 429.39 455.47 416.36 463.36 401.88 463.19 388.48 456.84 374.63 448.97 361.33 437.05 351.9 424.46 342.8 411.86 340.09 400.93 342.93 392.32 346.48 382.37 354.69 372.96 365.83 366.05" stroke-dasharray="9 9" transform="rotate(91.53125, 400, 400)" opacity="0.91"></path><path d="M370.86 377.23C379.32 370.99 389.21 368.76 398.87 370.41 409.12 372.2 419.7 377.89 428.05 386.82 436.61 395.75 440.45 406.36 439.49 416.63 438.08 427.19 432.15 437.41 422.54 444.29 412.92 450.32 401.68 450.85 391.09 446.97 380.35 442.29 370.07 434.25 362.78 424.8 355.67 415.34 353.19 406.3 354.83 398.7 356.77 390.42 362.39 382.69 370.86 377.23" stroke-dasharray="1 1" transform="rotate(94.6875, 400, 400)" opacity="0.94"></path><path d="M377.78 388.4C389.27 379.85 406.42 382.44 417.17 394.5 428.29 406.55 426.79 423.98 414.22 433.12 401.64 440.76 383.65 434.97 373.66 422.41 364 409.84 366.28 395.57 377.78 388.4" stroke-dasharray="11 1" transform="rotate(97.84375, 400, 400)" opacity="0.97"></path></g></svg>