<svg xmlns="http://www.w3.org/2000/svg" version="1.1" xmlns:xlink="http://www.w3.org/1999/xlink" xmlns:svgjs="http://svgjs.dev/svgjs" viewBox="0 0 800 800"><g stroke="hsl(235, 100%, 6%)" fill="none" stroke-linecap="round"><circle r="342" cx="400" cy="400" stroke-width="8.5" stroke-dasharray="2149 2149" transform="rotate(360, 400, 400)" opacity="0.05"></circle><circle r="324" cx="400" cy="400" stroke-width="8.5" stroke-dasharray="1923 2036" transform="rotate(340, 400, 400)" opacity="0.10"></circle><circle r="306" cx="400" cy="400" stroke-width="8.5" stroke-dasharray="1709 1923" transform="rotate(320, 400, 400)" opacity="0.16"></circle><circle r="288" cx="400" cy="400" stroke-width="8.5" stroke-dasharray="1508 1810" transform="rotate(300, 400, 400)" opacity="0.21"></circle><circle r="270" cx="400" cy="400" stroke-width="8.5" stroke-dasharray="1319 1696" transform="rotate(280, 400, 400)" opacity="0.26"></circle><circle r="252" cx="400" cy="400" stroke-width="8.5" stroke-dasharray="1144 1583" transform="rotate(260, 400, 400)" opacity="0.31"></circle><circle r="234" cx="400" cy="400" stroke-width="8.5" stroke-dasharray="980 1470" transform="rotate(240, 400, 400)" opacity="0.37"></circle><circle r="216" cx="400" cy="400" stroke-width="8.5" stroke-dasharray="829 1357" transform="rotate(220, 400, 400)" opacity="0.42"></circle><circle r="198" cx="400" cy="400" stroke-width="8.5" stroke-dasharray="691 1244" transform="rotate(200, 400, 400)" opacity="0.47"></circle><circle r="180" cx="400" cy="400" stroke-width="8.5" stroke-dasharray="565 1131" transform="rotate(180, 400, 400)" opacity="0.53"></circle><circle r="162" cx="400" cy="400" stroke-width="8.5" stroke-dasharray="452 1018" transform="rotate(160, 400, 400)" opacity="0.58"></circle><circle r="144" cx="400" cy="400" stroke-width="8.5" stroke-dasharray="352 905" transform="rotate(140, 400, 400)" opacity="0.63"></circle><circle r="126" cx="400" cy="400" stroke-width="8.5" stroke-dasharray="264 792" transform="rotate(120, 400, 400)" opacity="0.68"></circle><circle r="108" cx="400" cy="400" stroke-width="8.5" stroke-dasharray="188 679" transform="rotate(100, 400, 400)" opacity="0.74"></circle><circle r="90" cx="400" cy="400" stroke-width="8.5" stroke-dasharray="126 565" transform="rotate(80, 400, 400)" opacity="0.79"></circle><circle r="72" cx="400" cy="400" stroke-width="8.5" stroke-dasharray="75 452" transform="rotate(60, 400, 400)" opacity="0.84"></circle><circle r="54" cx="400" cy="400" stroke-width="8.5" stroke-dasharray="38 339" transform="rotate(40, 400, 400)" opacity="0.89"></circle><circle r="36" cx="400" cy="400" stroke-width="8.5" stroke-dasharray="13 226" transform="rotate(20, 400, 400)" opacity="0.95"></circle><circle r="18" cx="400" cy="400" stroke-width="8.5" stroke-dasharray="0 113" opacity="1.00"></circle></g></svg>