<svg xmlns="http://www.w3.org/2000/svg" version="1.1" xmlns:xlink="http://www.w3.org/1999/xlink" xmlns:svgjs="http://svgjs.dev/svgjs" viewBox="0 0 800 800"><g stroke="#000027" fill="none" stroke-linecap="round"><circle r="346.5" cx="400" cy="400" stroke-width="11" stroke-dasharray="17 47" stroke-dashoffset="25" transform="rotate(298, 400, 400)" opacity="0.05"></circle><circle r="330" cx="400" cy="400" stroke-width="11" stroke-dasharray="26 21" stroke-dashoffset="25" transform="rotate(80, 400, 400)" opacity="0.10"></circle><circle r="313.5" cx="400" cy="400" stroke-width="10" stroke-dasharray="16 16" stroke-dashoffset="25" transform="rotate(27, 400, 400)" opacity="0.15"></circle><circle r="297" cx="400" cy="400" stroke-width="10" stroke-dasharray="37 28" stroke-dashoffset="25" transform="rotate(82, 400, 400)" opacity="0.19"></circle><circle r="280.5" cx="400" cy="400" stroke-width="10" stroke-dasharray="32 12" stroke-dashoffset="25" transform="rotate(199, 400, 400)" opacity="0.24"></circle><circle r="264" cx="400" cy="400" stroke-width="10" stroke-dasharray="38 49" stroke-dashoffset="25" transform="rotate(47, 400, 400)" opacity="0.29"></circle><circle r="247.5" cx="400" cy="400" stroke-width="9" stroke-dasharray="35 12" stroke-dashoffset="25" transform="rotate(104, 400, 400)" opacity="0.33"></circle><circle r="231" cx="400" cy="400" stroke-width="9" stroke-dasharray="53 44" stroke-dashoffset="25" transform="rotate(54, 400, 400)" opacity="0.38"></circle><circle r="214.5" cx="400" cy="400" stroke-width="9" stroke-dasharray="35 13" stroke-dashoffset="25" transform="rotate(247, 400, 400)" opacity="0.43"></circle><circle r="198" cx="400" cy="400" stroke-width="8" stroke-dasharray="24 13" stroke-dashoffset="25" transform="rotate(48, 400, 400)" opacity="0.48"></circle><circle r="181.5" cx="400" cy="400" stroke-width="8" stroke-dasharray="22 39" stroke-dashoffset="25" transform="rotate(165, 400, 400)" opacity="0.53"></circle><circle r="165" cx="400" cy="400" stroke-width="8" stroke-dasharray="37 48" stroke-dashoffset="25" transform="rotate(25, 400, 400)" opacity="0.57"></circle><circle r="148.5" cx="400" cy="400" stroke-width="7" stroke-dasharray="52 27" stroke-dashoffset="25" transform="rotate(39, 400, 400)" opacity="0.62"></circle><circle r="132" cx="400" cy="400" stroke-width="7" stroke-dasharray="38 47" stroke-dashoffset="25" transform="rotate(302, 400, 400)" opacity="0.67"></circle><circle r="115.5" cx="400" cy="400" stroke-width="7" stroke-dasharray="21 47" stroke-dashoffset="25" transform="rotate(261, 400, 400)" opacity="0.71"></circle><circle r="99" cx="400" cy="400" stroke-width="7" stroke-dasharray="31 39" stroke-dashoffset="25" transform="rotate(0, 400, 400)" opacity="0.76"></circle><circle r="82.5" cx="400" cy="400" stroke-width="6" stroke-dasharray="11 48" stroke-dashoffset="25" transform="rotate(205, 400, 400)" opacity="0.81"></circle><circle r="66" cx="400" cy="400" stroke-width="6" stroke-dasharray="13 10" stroke-dashoffset="25" transform="rotate(231, 400, 400)" opacity="0.86"></circle><circle r="49.5" cx="400" cy="400" stroke-width="6" stroke-dasharray="43 47" stroke-dashoffset="25" transform="rotate(189, 400, 400)" opacity="0.91"></circle><circle r="33" cx="400" cy="400" stroke-width="5" stroke-dasharray="43 17" stroke-dashoffset="25" transform="rotate(218, 400, 400)" opacity="0.95"></circle><circle r="16.5" cx="400" cy="400" stroke-width="5" stroke-dasharray="36 51" stroke-dashoffset="25" transform="rotate(325, 400, 400)" opacity="1.00"></circle></g></svg>